<?xml version="1.0" encoding="UTF-8" standalone="no"?>
<!DOCTYPE svg PUBLIC "-//W3C//DTD SVG 1.1//EN" "http://www.w3.org/Graphics/SVG/1.1/DTD/svg11.dtd">
<svg width="100%" height="100%" viewBox="0 0 5600 800" version="1.1" xmlns="http://www.w3.org/2000/svg" xmlns:xlink="http://www.w3.org/1999/xlink" xml:space="preserve" xmlns:serif="http://www.serif.com/" style="fill-rule:evenodd;clip-rule:evenodd;stroke-linejoin:round;stroke-miterlimit:2;">
    <g transform="matrix(1,0,0,0.76545,0,-7370.28)">
        <g id="Better-Crop">
            <g transform="matrix(0.974659,0,0,0.505916,0,4757.38)">
                <rect x="0" y="9628.69" width="5745.6" height="2065.83" style="fill:none;"/>
            </g>
            <g id="Main" transform="matrix(1.53069,0,0,1.99973,-781.858,-542.196)">
                <g transform="matrix(1.43652,0,0,1.43652,-68.9961,-2146.46)">
                    <g transform="matrix(0.944553,0,0,0.944553,355.104,193.364)">
                        <path d="M1388.33,5327.96C1388.33,5340.74 1385.67,5345.81 1379.21,5345.81L1183.07,5345.81C1170.51,5345.81 1170.51,5366.21 1183.07,5366.61L1378.88,5366.61C1385.29,5366.61 1388.12,5370.94 1388.02,5384.34C1388.02,5397.51 1385.67,5402.25 1379.21,5401.88L1194.52,5401.88C1148.63,5401.88 1126.65,5384.34 1127.3,5327.61C1127.96,5271.89 1148.63,5254.33 1194.52,5254.33L1379.21,5254.33C1385.67,5254.33 1388.33,5258.72 1388.33,5271.89C1388.33,5284.72 1385.67,5288.77 1378.88,5288.4L1183.07,5288.4C1170.51,5288.77 1170.51,5310.03 1183.07,5310.03L1379.21,5310.03C1385.67,5310.03 1388.33,5314.77 1388.33,5327.96" style="fill:url(#_Linear1);"/>
                    </g>
                    <g transform="matrix(0.944553,0,0,0.944553,355.104,193.364)">
                        <path d="M1044.37,5392.43L1044.37,5348.86C1044.37,5342.76 1038.73,5337.38 1032.94,5337.38L893.807,5337.38C887.415,5337.38 881.267,5341.45 881.267,5347.85L881.267,5392.43C881.267,5399.21 870.174,5401.88 852.986,5401.88C834.361,5401.51 825.277,5398.85 825.615,5392.43L825.615,5257.99C825.615,5251.27 835.365,5247.57 852.649,5247.88C871.179,5247.88 881.679,5251.27 881.679,5257.99L881.679,5291.78C881.679,5297.86 887.415,5303.57 893.459,5303.57L1032.23,5303.57C1039.03,5303.57 1044.68,5297.43 1044.68,5291.7L1044.78,5257.99C1044.78,5251.27 1054.87,5247.57 1072.11,5247.88C1090.69,5247.88 1100.33,5251.27 1100.33,5257.64L1100.33,5392.43C1100.33,5399.21 1089.35,5401.88 1072.11,5401.88C1053.21,5401.51 1044.37,5398.85 1044.37,5392.43" style="fill:url(#_Linear2);"/>
                    </g>
                    <g transform="matrix(0.944553,0,0,0.944553,355.104,193.364)">
                        <path d="M527.51,5285.7C523.421,5285.7 518.382,5281.99 518.382,5268.83C518.076,5256.31 523.421,5250.59 527.51,5250.59L792.326,5250.59C796.698,5250.59 801.781,5255.99 801.781,5268.83C801.422,5281.66 796.698,5285.7 792.326,5285.7L700.183,5285.7C693.75,5285.7 687.949,5291.78 687.949,5297.19L687.949,5392.43C687.949,5399.21 677.617,5401.88 660.293,5401.88C641.72,5401.51 632.973,5399.45 632.973,5392.43L632.973,5297.86C632.265,5291.47 627.226,5286.4 621.077,5285.7L527.51,5285.7Z" style="fill:url(#_Linear3);"/>
                    </g>
                </g>
                <g transform="matrix(1,0,0,1,1489.43,-85.2423)">
                    <g transform="matrix(1.35691,0,0,1.35691,-1040.75,-1783.67)">
                        <path d="M2669.08,5251.27C2651.14,5251.27 2643.21,5256.66 2643.21,5262.08L2643.21,5340.93C2643.21,5347.68 2641.37,5350.42 2636.96,5352.1C2632.59,5353.79 2629.08,5352.46 2624.83,5349.73L2509.91,5263.41C2496.33,5253.95 2481.87,5248.92 2465.67,5248.92C2458.57,5248.92 2451.15,5249.89 2444.03,5252.3C2424.45,5258.67 2411.64,5279.29 2411.64,5297.86L2411.64,5392.43C2411.64,5399.21 2420.79,5402.23 2439.98,5401.88C2456.56,5401.88 2466.07,5399.87 2466.07,5392.43L2466.07,5308.26C2466.07,5301.52 2466.07,5299.17 2470.4,5296.76C2474.88,5294.75 2477.99,5295.31 2481.18,5297.82L2599.43,5386.7C2612.64,5396.53 2628.17,5401.22 2644.35,5401.22C2652.49,5401.22 2660.92,5399.87 2669.08,5396.81C2689.68,5389.03 2697.07,5375.23 2697.43,5345.81L2697.43,5262.08C2697.43,5256.66 2689.25,5251.27 2669.08,5251.27" style="fill:rgb(33,150,243);"/>
                    </g>
                    <g transform="matrix(1.35691,0,0,1.35691,-1040.75,-1783.67)">
                        <path d="M2381.09,5257.99C2381.09,5252.3 2375.43,5248.09 2354.95,5247.88C2334.35,5247.68 2325.25,5252.3 2325.25,5257.99L2325.25,5392.43C2325.25,5399.21 2333.02,5401.88 2352.29,5401.88C2373.48,5402.23 2381.09,5399.21 2381.09,5392.43L2381.09,5257.99Z" style="fill:rgb(33,150,243);"/>
                    </g>
                    <g transform="matrix(1.35691,0,0,1.35691,-1040.75,-1783.67)">
                        <path d="M2113.75,5307.43C2116.49,5301.03 2118.23,5296.72 2118.23,5296.72C2120.57,5290.41 2124.42,5286.03 2130.55,5285.67L2199.32,5285.67C2205.45,5286.03 2209.21,5290.41 2211.62,5296.73C2211.62,5296.73 2213.33,5301.04 2216.08,5307.43L2113.75,5307.43ZM2265.77,5298.66C2264.82,5298 2257.97,5276.44 2246.93,5264.45C2235.03,5251.44 2223.6,5251.45 2204.33,5251.45L2125.54,5251.45C2106.25,5251.45 2094.84,5251.41 2082.9,5264.45C2071.85,5276.42 2065.03,5297.99 2064.06,5298.65C2064.06,5298.65 2023.32,5392.41 2023.32,5392.73C2023,5399.17 2029.38,5401.88 2049.65,5401.88C2071.94,5401.88 2074.58,5400.15 2077.51,5392.73C2077.51,5392.22 2088.52,5365.77 2099.11,5340.95L2230.7,5340.95C2241.3,5365.77 2252.35,5392.23 2252.35,5392.75C2255.27,5400.17 2257.91,5401.88 2280.2,5401.88C2300.46,5401.88 2306.87,5399.21 2306.53,5392.75C2306.53,5392.43 2265.77,5298.66 2265.77,5298.66" style="fill:rgb(33,150,243);fill-rule:nonzero;"/>
                    </g>
                    <g transform="matrix(1.35691,0,0,1.35691,-1040.75,-1783.67)">
                        <path d="M2002.51,5384.4L1940.41,5342.65L1953.62,5342.8C1964.52,5342.8 1970.73,5342.43 1978.84,5340.16C1998.03,5333.95 2011.72,5318.68 2011.72,5296.76C2011.72,5274.97 1997.48,5260.9 1978.8,5254.82L1978.91,5254.82C1970.84,5252.54 1961.35,5251.45 1950.47,5251.45L1797.52,5251.45C1778.27,5251.45 1763.41,5253.38 1750.65,5265.56C1740.11,5275.7 1736.07,5284.82 1736.07,5298.66L1736.07,5392.75C1735.72,5399.21 1742.1,5401.88 1762.38,5401.88C1784.67,5401.88 1789.87,5399.21 1790.23,5392.75L1790.23,5296.73C1790.23,5290.59 1796.42,5286.05 1802.55,5285.67L1954.8,5285.67C1967.24,5285.67 1967.24,5307.23 1954.8,5307.23L1817.04,5307.23C1810.55,5307.23 1807.85,5312.02 1807.85,5325.19C1807.85,5337.98 1810.28,5342.8 1816.72,5342.82L1861.54,5342.82C1864.71,5342.65 1868.47,5344.15 1870.35,5345.37L1938.63,5391.82C1952.62,5400.75 1961.86,5401.54 1980.45,5401.59L1981.42,5401.59C2007.07,5401.28 2008.78,5396.87 2008.78,5391.82C2008.78,5388.44 2005.28,5386.41 2002.51,5384.4" style="fill:rgb(33,150,243);fill-rule:nonzero;"/>
                    </g>
                    <g transform="matrix(1.35691,0,0,1.35691,-1040.75,-1783.67)">
                        <path d="M1692.78,5325.23C1698.72,5317.66 1702.23,5308.31 1702.23,5298.19C1702.23,5278.09 1688.45,5261.06 1669.31,5254.82L1669.43,5254.82C1661.32,5252.54 1651.88,5251.45 1640.97,5251.45C1640.97,5251.45 1549.47,5251.5 1489.37,5251.45C1470.09,5251.45 1455.26,5253.4 1442.46,5265.56C1431.95,5275.7 1427.89,5284.82 1427.89,5298.66L1427.89,5391.68C1427.55,5398.12 1433.96,5400.8 1454.21,5400.8C1476.47,5400.8 1481.69,5398.12 1482.07,5391.68L1482.07,5296.73C1482.07,5290.59 1488.25,5286.05 1494.4,5285.67L1647.1,5285.67C1659.59,5285.67 1659.59,5307.23 1647.1,5307.23L1508.88,5307.23C1502.39,5307.23 1499.69,5312.02 1499.69,5325.19C1499.69,5337.98 1502.35,5343.04 1508.79,5343.06L1647.1,5343.04C1659.59,5343.04 1659.59,5363.33 1647.1,5363.67L1508.75,5363.63C1502.45,5363.72 1499.69,5367.87 1499.69,5381.17C1499.69,5394.32 1501.76,5399.11 1508.58,5399.11L1640.97,5399.14C1650.55,5399.14 1659,5398.32 1666.5,5396.57L1666.5,5396.47C1687.1,5391.06 1702.23,5373.37 1702.23,5352.3C1702.23,5342.17 1698.72,5332.84 1692.78,5325.23" style="fill:rgb(33,150,243);fill-rule:nonzero;"/>
                    </g>
                </g>
                <g transform="matrix(1.75755,0,0,1.75755,257.618,-4003.38)">
                    <path d="M226.669,5288.29C198.446,5288.29 175.193,5304.81 175.193,5325.29C175.193,5345.84 198.446,5362.3 226.669,5362.3C255.166,5362.3 278.143,5345.84 278.143,5325.29C278.143,5304.81 255.166,5288.29 226.669,5288.29" style="fill:rgb(33,150,243);"/>
                </g>
                <g transform="matrix(1.75755,0,0,1.75755,257.618,-4003.38)">
                    <path d="M483.166,5325.49C483.166,5305.01 460.126,5288.47 431.707,5288.47L431.058,5288.47C403.03,5288.29 380.433,5271.75 380.433,5251.5C380.433,5230.98 357.424,5214.44 329.185,5214.44C300.946,5214.44 277.937,5230.98 277.937,5251.5C277.937,5271.96 300.946,5288.47 329.185,5288.47C357.424,5288.47 380.433,5305.01 380.433,5325.49L380.433,5325.74C380.237,5346.01 357.228,5362.54 328.99,5362.54L328.763,5362.54C300.752,5362.54 277.737,5379.05 277.737,5399.56C277.737,5420.05 300.752,5436.58 328.763,5436.58C357.228,5436.58 380.237,5420.05 380.237,5399.56C380.237,5379.25 403.03,5362.74 431.269,5362.54L431.707,5362.54C458.43,5362.54 480.218,5347.91 482.901,5329.3C483.166,5328.02 483.166,5326.76 483.166,5325.49" style="fill:rgb(33,150,243);"/>
                </g>
            </g>
        </g>
    </g>
    <defs>
        <linearGradient id="_Linear1" x1="0" y1="0" x2="1" y2="0" gradientUnits="userSpaceOnUse" gradientTransform="matrix(8.70125e-15,147.567,-142.102,9.03587e-15,1257.8,5254.33)"><stop offset="0" style="stop-color:rgb(0,83,188);stop-opacity:1"/><stop offset="0.55" style="stop-color:rgb(0,76,179);stop-opacity:1"/><stop offset="1" style="stop-color:rgb(0,52,146);stop-opacity:1"/></linearGradient>
        <linearGradient id="_Linear2" x1="0" y1="0" x2="1" y2="0" gradientUnits="userSpaceOnUse" gradientTransform="matrix(9.15724e-15,154.015,-149.549,9.4307e-15,962.964,5247.86)"><stop offset="0" style="stop-color:rgb(0,83,188);stop-opacity:1"/><stop offset="0.55" style="stop-color:rgb(0,76,179);stop-opacity:1"/><stop offset="1" style="stop-color:rgb(0,52,146);stop-opacity:1"/></linearGradient>
        <linearGradient id="_Linear3" x1="0" y1="0" x2="1" y2="0" gradientUnits="userSpaceOnUse" gradientTransform="matrix(9.44682e-15,151.287,-154.278,9.26365e-15,660.071,5250.59)"><stop offset="0" style="stop-color:rgb(0,83,188);stop-opacity:1"/><stop offset="0.55" style="stop-color:rgb(0,76,179);stop-opacity:1"/><stop offset="1" style="stop-color:rgb(0,52,146);stop-opacity:1"/></linearGradient>
    </defs>
</svg>



